# AST/ASF file generated using VICON BodyLanguage
# -----------------------------------------------
:version 1.10
:name VICON
:units
  mass 1.0
  length 0.45
  angle deg
:documentation
   .ast/.asf automatically generated from VICON data using
   VICON BodyBuilder and BodyLanguage model FoxedUp or BRILLIANT.MOD
:root
   order TX TY TZ RX RY RZ
   axis XYZ
   position 0 0 0  
   orientation 0 0 0 
:bonedata
  begin
     id 1 
     name lhipjoint
     direction 0.602128 -0.715006 0.355257 
     length 2.21237 
     axis 0 0 0  XYZ
  end
  begin
     id 2 
     name lfemur
     direction 0.34202 -0.939693 0  
     length 6.71649  
     axis 0 0 20  XYZ
    dof rx ry rz
    limits (-160.0 20.0)
           (-70.0 70.0)
           (-60.0 70.0)
  end
  begin
     id 3 
     name ltibia
     direction 0.34202 -0.939693 0   
     length 6.97123   
     axis 0 0 20   XYZ
    dof rx
    limits (-10.0 170.0)
  end
  begin
     id 4 
     name lfoot
     direction 0.0655697 -0.180151 0.981451   
     length 1.80924   
     axis -90 7.62852e-016 20   XYZ
    dof rx rz
    limits (-45.0 90.0)
           (-70.0 20.0)
  end
  begin
     id 5 
     name ltoes
     direction 1.53545e-011 -4.21827e-011 1   
     length 0.916331   
     axis -90 7.62852e-016 20   XYZ
    dof rx
    limits (-90.0 20.0)
  end
  begin
     id 6 
     name rhipjoint
     direction -0.625414 -0.698792 0.347201   
     length 2.2637  
     axis 0 0 0  XYZ 
  end
  begin
     id 7 
     name rfemur
     direction -0.34202 -0.939693 0   
     length 7.07595   
     axis 0 0 -20   XYZ
    dof rx ry rz
    limits (-160.0 20.0)
           (-70.0 70.0)
           (-70.0 60.0)
  end
  begin
     id 8 
     name rtibia
     direction -0.34202 -0.939693 0   
     length 7.22924   
     axis 0 0 -20   XYZ
    dof rx
    limits (-10.0 170.0)
 end
 begin
     id 9 
     name rfoot
     direction -0.0766747 -0.210662 0.974547   
     length 1.98482  
     axis -90 -7.62852e-016 -20   XYZ
    dof rx rz
    limits (-45.0 90.0)
           (-20.0 70.0)
  end
  begin
     id 10 
     name rtoes
     direction -1.53532e-011 -4.21867e-011 1   
     length 0.999842   
     axis -90 -7.62852e-016 -20   XYZ
    dof rx
    limits (-90.0 20.0)
  end
  begin
     id 11 
     name lowerback
     direction -0.0224668 0.997354 -0.0691422   
     length 2.09945   
     axis 0 0 0   XYZ
    dof rx ry rz
    limits (-20.0 45.0)
           (-30.0 30.0)
           (-30.0 30.0)
  end
  begin
     id 12 
     name upperback
     direction 0.0134698 0.998451 -0.0539888   
     length 2.09758   
     axis 0 0 0   XYZ
    dof rx ry rz
    limits (-20.0 45.0)
           (-30.0 30.0)
           (-30.0 30.0)
  end
  begin
     id 13 
     name thorax
     direction 0.0241905 0.99948 -0.0213333   
     length 2.10428   
     axis 0 0 0   XYZ
    dof rx ry rz
    limits (-20.0 45.0)
           (-30.0 30.0)
           (-30.0 30.0)
  end
  begin
     id 14 
     name lowerneck
     direction -0.00866847 0.995978 0.0891737   
     length 1.3959   
     axis 0 0 0   XYZ
    dof rx ry rz
    limits (-20.0 45.0)
           (-30.0 30.0)
           (-30.0 30.0)
  end
  begin
     id 15 
     name upperneck
     direction 0.0680679 0.992203 0.104404   
     length 1.39452   
     axis 0 0 0   XYZ
    dof rx ry rz
    limits (-20.0 45.0)
           (-30.0 30.0)
           (-30.0 30.0)
  end
  begin
     id 16
     name head
     direction 0.0242216 0.999358 0.0264054  
     length 1.40433  
     axis 0 0 0   XYZ
    dof rx ry rz
    limits (-20.0 45.0)
           (-30.0 30.0)
           (-30.0 30.0)
  end
  begin
     id 17 
     name lclavicle
     direction 0.929368 0.362991 -0.0671771  
     length 3.04887  
     axis 0 0 0   XYZ
    dof ry rz
    limits (-20.0 10.0)
           (0.0 20.0)
  end
  begin
     id 18 
     name lhumerus
     direction 1 -4.48967e-011 -7.13741e-028   
     length 4.77195   
     axis -180 -30 -90   XYZ
    dof rx ry rz
    limits (-60.0 90.0)
           (-90.0 90.0)
           (-90.0 90.0)
  end
  begin
     id 19
     name lradius
     direction 1 -4.48977e-011 3.60404e-027   
     length 2.98444   
     axis -180 -30 -90   XYZ
    dof rx
    limits (-10.0 170.0)
  end
  begin
     id 20
     name lwrist
     direction 1 -4.48997e-011 7.54877e-027   
     length 1.49222   
     axis -7.18178e-015 90 90   XYZ
    dof ry
    limits (-180.0 0.0)
 end
  begin
     id 21 
     name lhand
     direction 1 -4.489e-011 1.51105e-026   
     length 0.992285   
     axis -9.63605e-015 90 90   XYZ
    dof rx rz
    limits (-90.0 90.0)
           (-45.0 45.0)
  end
  begin
     id 22 
     name lfingers
     direction 1 -4.48998e-011 3.01948e-026   
     length 0.800006   
     axis -1.92718e-014 90 90   XYZ
    dof rx
    limits (0.0 90.0)
  end
  begin
     id 23
     name lthumb
     direction 0.707107 -6.34881e-011 0.707107   
     length 1.14865   
     axis -90 45 -3.53137e-014   XYZ
    dof rx rz
    limits (-45.0 45.0)
           (-45.0 45.0)
  end
  begin
     id 24 
     name rclavicle
     direction -0.945672 0.324529 0.0196374   
     length 3.4236  
     axis 0 0 0   XYZ 
    dof ry rz
    limits (-10.0 20.0)
           (-20.0 0.0)
  end
  begin
     id 25 
     name rhumerus
     direction -1 -4.4896e-011 1.02757e-029  
     length 4.62052   
     axis -180 30 90   XYZ
    dof rx ry rz
    limits (-90.0 60.0)
           (-90.0 90.0)
           (-90.0 90.0)
  end
  begin
     id 26 
     name rradius
     direction -1 -4.48982e-011 3.85962e-027   
     length 2.95332   
     axis -180 30 90   XYZ
    dof rx
    limits (-10.0 170.0)
  end
  begin
     id 27 
     name rwrist
     direction -1 -4.48961e-011 7.55118e-027   
     length 1.47666   
     axis -7.18178e-015 -90 -90   XYZ
    dof ry
    limits (-180.0 0.0)
  end
  begin
     id 28
     name rhand
     direction -1 -4.48984e-011 1.50994e-026   
     length 0.990956   
     axis -9.63605e-015 -90 -90   XYZ
    dof rx rz
    limits (-90.0 90.0)
           (-45.0 45.0)
  end
  begin
     id 29
     name rfingers
     direction -1 -4.4892e-011 3.02158e-026   
     length 0.798934   
     axis -1.92718e-014 -90 -90   XYZ
    dof rx
    limits (0.0 90.0)
  end
  begin
     id 30
     name rthumb
     direction -0.707107 -6.34916e-011 0.707107   
     length 1.14711   
     axis -90 -45 3.53137e-014   XYZ
    dof rx rz
    limits (-45.0 45.0)
           (-45.0 45.0)
  end
:hierarchy
  begin
    root lhipjoint rhipjoint lowerback
    lhipjoint lfemur
    lfemur ltibia
    ltibia lfoot
    lfoot ltoes
    rhipjoint rfemur
    rfemur rtibia
    rtibia rfoot
    rfoot rtoes
    lowerback upperback
    upperback thorax
    thorax lowerneck lclavicle rclavicle
    lowerneck upperneck
    upperneck head
    lclavicle lhumerus
    lhumerus lradius
    lradius lwrist
    lwrist lhand lthumb
    lhand lfingers
    rclavicle rhumerus
    rhumerus rradius
    rradius rwrist
    rwrist rhand rthumb
    rhand rfingers
  end

#!OML:ASF H:\ManfredObstacles\Project 1\Capture day 1\Session 1\Male.ASF
:FULLY-SPECIFIED
:DEGREES
366
root -5.3418 16.3797 -8.18117 -175.541 -54.1321 -177.287
lowerback -12.4768 0.101589 -3.78809
upperback 2.2431 0.814327 -1.02912
thorax 9.40456 0.208478 1.1996
lowerneck -2.83882 0.196707 -5.19766
upperneck 10.5151 -0.261751 6.70389
head 3.5965 -0.108573 2.88109
rclavicle -1.40143e-014 -1.90833e-014
rhumerus -31.2623 -19.3125 -82.3828
rradius 25.8326
rwrist 32.4327
rhand 0.693023 -4.13938
rfingers 7.12502
rthumb 26.254 -32.3431
lclavicle -1.40143e-014 -1.90833e-014
lhumerus -39.7233 43.3206 59.6814
lradius 12.1469
lwrist -54.5171
lhand -6.47523 8.61002
lfingers 7.12502
lthumb 19.3755 37.6647
rfemur -4.90397 -6.76916 22.1941
rtibia 45.0362
rfoot -4.74395 11.0001
rtoes 23.6753
lfemur -27.7143 2.63628 -20.4485
ltibia 23.1966
lfoot 0.608562 -6.33767
ltoes -14.4515
367
root -5.54893 16.4052 -8.26804 -175.28 -53.8428 -177.768
lowerback -12.3001 0.0333803 -3.92779
upperback 2.21059 0.737368 -1.07252
thorax 9.26948 0.167409 1.21488
lowerneck -3.03369 0.161055 -5.38665
upperneck 10.3162 -0.2512 6.56096
head 3.56939 -0.108088 2.86807
rclavicle -3.22031e-014 7.15625e-015
rhumerus -32.1023 -19.7709 -81.2161
rradius 25.1665
rwrist 32.7841
rhand 1.53942 -4.26599
rfingers 7.12502
rthumb 27.064 -32.3464
lclavicle -3.22031e-014 7.15625e-015
lhumerus -43.2539 46.3247 54.9721
lradius 11.4388
lwrist -59.0104
lhand -5.7912 8.87116
lfingers 7.12502
lthumb 20.0331 37.8584
rfemur -7.13772 -8.01978 21.2549
rtibia 49.7219
rfoot -0.899531 10.177
rtoes 24.0722
lfemur -26.616 3.71195 -21.1511
ltibia 23.1096
lfoot 0.0301945 -7.36249
ltoes -13.0831
368
root -5.75029 16.4305 -8.3519 -175.128 -53.4941 -178.069
lowerback -12.0733 0.161155 -3.76206
upperback 2.14477 0.879424 -1.22741
thorax 9.06282 0.252864 0.981931
lowerneck -3.08464 -0.0122318 -5.72783
upperneck 10.0192 -0.458478 6.78987
head 3.50185 -0.208347 2.98494
rclavicle 1.10425e-013 -3.89618e-014
rhumerus -32.9663 -20.2673 -80.1945
rradius 24.6526
rwrist 32.9336
rhand 2.15625 -4.43735
rfingers 7.12502
rthumb 27.654 -32.4247
lclavicle 1.10425e-013 -3.89618e-014
lhumerus -46.4986 48.4541 50.503
lradius 10.8461
lwrist -63.5109
lhand -5.07243 8.84421
lfingers 7.12502
lthumb 20.7238 37.7577
rfemur -9.50965 -8.94612 20.5288
rtibia 54.2368
rfoot 2.47561 8.96708
rtoes 25.7279
lfemur -25.445 4.76252 -21.6671
ltibia 22.8027
lfoot -0.413331 -8.25327
ltoes -10.9155
369
root -5.94357 16.4561 -8.4341 -174.685 -53.1143 -178.733
lowerback -11.761 0.193629 -3.96009
upperback 2.05048 0.939109 -1.34382
thorax 8.77615 0.279416 0.977776
lowerneck -2.88895 -0.0666657 -6.12962
upperneck 9.48189 -0.507034 7.08845
head 3.31179 -0.233471 3.13722
rclavicle -1.32987e-013 -3.81667e-014
rhumerus -33.7849 -20.3791 -79.2509
rradius 24.291
rwrist 33.2656
rhand 2.55696 -4.64378
rfingers 7.12502
rthumb 28.0371 -32.569
lclavicle -1.32987e-013 -3.81667e-014
lhumerus -49.6519 49.9533 46.5107
lradius 10.4948
lwrist -67.2741
lhand -4.51846 8.68997
lfingers 7.12502
lthumb 21.256 37.5444
rfemur -11.9446 -9.60305 19.703
rtibia 58.4747
rfoot 4.62819 7.11816
rtoes 26.6111
lfemur -24.2765 5.67631 -22.3451
ltibia 22.4217
lfoot -0.83738 -9.03362
ltoes -10.0303
370
root -6.12802 16.4797 -8.5232 -174.507 -53.0533 -179.247
lowerback -11.4014 -0.0434625 -4.36986
upperback 2.09319 0.657489 -1.26598
thorax 8.62387 0.12272 1.23591
lowerneck -2.70762 0.0631105 -6.25358
upperneck 8.63734 -0.251458 6.79052
head 3.34402 -0.14015 3.39724
rclavicle -2.88238e-014 -7.95139e-015
rhumerus -34.4934 -20.3278 -78.2681
rradius 24.1051
rwrist 34.3406
rhand 2.97539 -4.61134
rfingers 7.12502
rthumb 28.437 -32.4705
lclavicle -2.88238e-014 -7.95139e-015
lhumerus -52.6139 51.135 43.1072
lradius 10.3405
lwrist -70.1822
lhand -4.29065 8.54967
lfingers 7.12502
lthumb 21.4748 37.3793
rfemur -14.0674 -10.4854 19.0634
rtibia 62.1236
rfoot 4.71335 4.78465
rtoes 25.9834
lfemur -23.2429 6.52715 -22.9132
ltibia 22.5493
lfoot -1.41778 -10.1348
ltoes -9.49751
